<?xml version="1.0" encoding="utf-8"?>
<!-- Generator: Adobe Illustrator 15.0.0, SVG Export Plug-In . SVG Version: 6.00 Build 0)  -->
<!DOCTYPE svg PUBLIC "-//W3C//DTD SVG 1.0//EN" "http://www.w3.org/TR/2001/REC-SVG-20010904/DTD/svg10.dtd">
<svg version="1.0" id="Layer_1" xmlns="http://www.w3.org/2000/svg" xmlns:xlink="http://www.w3.org/1999/xlink" x="0px" y="0px"
	 width="100px" height="100px" viewBox="0 0 100 100" enable-background="new 0 0 100 100" xml:space="preserve">
<g>
	<path fill="#333333" d="M62.981,25.048c0,0-6.119-3.5-12.954-3.5c-6.834,0-11.051,2.08-13.302,3.5c0,0-2.084,1.066-0.853,1.795
		c2.711,1.606,7.836,3.47,13.978,3.47c6.141,0,11.444-1.691,14.156-3.297C65.237,26.289,63.438,25.326,62.981,25.048z"/>
	<path fill="#333333" d="M49.851,1C22.871,1,1,22.872,1,49.851C1,76.83,22.871,98.702,49.851,98.702S98.701,76.83,98.701,49.851
		C98.701,22.872,76.83,1,49.851,1z M67.957,32.319c0,6.917-12.535,12.633-12.535,17.531c0,4.898,12.535,10.613,12.535,17.532
		c0,6.917,0,7.595,0,7.595c0,2.55-8.106,7.204-18.106,7.204s-18.105-4.654-18.105-7.204c0,0,0-0.678,0-7.595
		c0-6.919,12.534-12.634,12.534-17.532c0-4.898-12.534-10.614-12.534-17.531c0-6.919,0-7.595,0-7.595
		c0-2.551,8.106-7.206,18.105-7.206s18.106,4.655,18.106,7.206C67.957,24.725,67.957,25.4,67.957,32.319z"/>
	<path fill="#333333" d="M35.543,29.087l0.153,3.232c0,2.138,3.412,5.454,5.903,7.876c3.41,3.314,6.631,5.799,6.631,9.655
		c0,3.857-3.221,6.342-6.631,9.657c-2.491,2.421-5.903,5.736-5.903,7.875v4.294c3.133-1.562,12.518-3.091,12.518-8.096
		c0-2.534,3.276-2.534,3.276,0c0,5.005,9.385,6.533,12.518,8.096v-4.294c0-2.139-3.412-5.454-5.903-7.875
		c-3.411-3.315-6.631-5.8-6.631-9.657c0-3.856,3.22-6.341,6.631-9.655c2.491-2.422,5.903-5.738,5.903-7.876l0.176-3.232
		c-3.317,1.786-8.6,3.49-14.332,3.49S38.86,30.874,35.543,29.087z"/>
</g>
</svg>
