<?xml version="1.0" encoding="utf-8"?>
<!-- Generator: Adobe Illustrator 15.0.0, SVG Export Plug-In . SVG Version: 6.00 Build 0)  -->
<!DOCTYPE svg PUBLIC "-//W3C//DTD SVG 1.0//EN" "http://www.w3.org/TR/2001/REC-SVG-20010904/DTD/svg10.dtd">
<svg version="1.0" id="Layer_1" xmlns="http://www.w3.org/2000/svg" xmlns:xlink="http://www.w3.org/1999/xlink" x="0px" y="0px"
	 width="100px" height="100px" viewBox="0 0 100 100" enable-background="new 0 0 100 100" xml:space="preserve">
<g>
	<path fill="#010101" d="M160,30.885c0-7.485,0-8.216,0-8.216c0-2.759-8.769-7.795-19.586-7.795
		c-10.818,0-19.587,5.036-19.587,7.795c0,0,0,0.731,0,8.216c0,7.483,13.56,13.667,13.56,18.965c0,5.299-13.56,11.481-13.56,18.966
		c0,7.483,0,8.217,0,8.217c0,2.758,8.769,7.793,19.587,7.793c10.817,0,19.586-5.035,19.586-7.793c0,0,0-0.733,0-8.217
		c0-7.484-13.56-13.667-13.56-18.966C146.44,44.552,160,38.369,160,30.885z M126.215,23.02c2.435-1.535,6.997-3.786,14.391-3.786
		c7.393,0,14.013,3.786,14.013,3.786c0.494,0.301,2.44,1.342,1.109,2.129c-2.935,1.737-8.671,3.566-15.313,3.566
		c-6.645,0-12.188-2.017-15.122-3.754C123.96,24.173,126.215,23.02,126.215,23.02z M142.168,49.851c0,4.173,3.482,6.86,7.173,10.447
		c2.695,2.619,6.387,6.205,6.387,8.519v4.646c-3.39-1.69-13.542-3.344-13.542-8.758c0-2.741-3.543-2.741-3.543,0
		c0,5.414-10.152,7.067-13.542,8.758v-4.646c0-2.313,3.69-5.899,6.386-8.519c3.689-3.587,7.174-6.274,7.174-10.447
		c0-4.172-3.484-6.86-7.174-10.445c-2.695-2.621-6.386-6.208-6.386-8.521l-0.165-3.496c3.588,1.932,9.277,3.775,15.479,3.775
		c6.2,0,11.914-1.843,15.503-3.775l-0.189,3.496c0,2.312-3.691,5.9-6.387,8.521C145.65,42.991,142.168,45.679,142.168,49.851z"/>
</g>
<path fill="#010101" d="M-58.215,25.745c-1.273-1.198-2.994-1.198-4.269,0l-22.128,19.908l22.128,19.907
	c1.275,1.199,2.995,1.199,4.269,0c1.274-1.2,1.274-3.146,0-4.344l-17.18-15.563l17.18-15.564
	C-56.94,28.89-56.94,26.945-58.215,25.745z M-37.386,25.745c-1.274-1.198-2.994-1.198-4.269,0c-1.274,1.201-1.205,3.145,0.069,4.344
	l17.111,15.564l-17.111,15.563c-1.274,1.198-1.344,3.144-0.069,4.344c1.274,1.199,2.994,1.199,4.269,0l22.128-19.907L-37.386,25.745
	z"/>
<g>
	<ellipse fill="#D48528" cx="29.322" cy="34.69" rx="2.085" ry="2.029"/>
	<rect x="27.599" y="40.807" fill="#D48528" width="44.594" height="25.579"/>
	<ellipse fill="#D48528" cx="34.882" cy="34.69" rx="2.085" ry="2.029"/>
	<path fill="#D48528" d="M49.896,0.853c-26.979,0-48.851,21.872-48.851,48.851c0,26.979,21.871,48.852,48.851,48.852
		s48.851-21.872,48.851-48.852C98.746,22.725,76.875,0.853,49.896,0.853z M77.697,66.386c0,3.059-2.502,5.561-5.561,5.561H27.654
		c-3.058,0-5.561-2.502-5.561-5.561V33.022c0-3.059,2.502-5.561,5.561-5.561h44.483c3.059,0,5.561,2.502,5.561,5.561V66.386z"/>
	<rect x="38.775" y="33.022" fill="#D48528" width="33.417" height="3.336"/>
</g>
</svg>
