<?xml version="1.0" encoding="utf-8"?>
<!-- Generator: Adobe Illustrator 15.0.0, SVG Export Plug-In . SVG Version: 6.00 Build 0)  -->
<!DOCTYPE svg PUBLIC "-//W3C//DTD SVG 1.0//EN" "http://www.w3.org/TR/2001/REC-SVG-20010904/DTD/svg10.dtd">
<svg version="1.0" id="Layer_1" xmlns="http://www.w3.org/2000/svg" xmlns:xlink="http://www.w3.org/1999/xlink" x="0px" y="0px"
	 width="262px" height="98px" viewBox="0 0 262 98" enable-background="new 0 0 262 98" xml:space="preserve">
<path fill="#D78629" d="M1.416,81.57h7.016l0.041-37.157h-6.77V30.056l33.2-0.041c3.317,0,6.234,0.143,8.749,0.428
	c2.515,0.286,4.895,0.809,7.138,1.571c2.244,0.761,4.079,1.781,5.506,3.058c1.427,1.279,2.549,2.924,3.365,4.936
	c0.815,2.013,1.224,4.379,1.224,7.097c0,3.371-0.924,6.343-2.773,8.911c-1.85,2.569-4.256,4.413-7.22,5.526v0.082
	c4.079,1.169,7.233,3.224,9.463,6.159c2.23,2.938,3.345,6.703,3.345,11.3c0,3.045-0.599,5.688-1.795,7.931
	c-1.196,2.244-2.889,4.025-5.078,5.343c-2.188,1.32-4.69,2.292-7.505,2.917c-2.814,0.625-5.975,0.938-9.483,0.938H1.416V81.57z
	 M29.967,57.017h1.673c1.441,0,2.63-0.074,3.568-0.225c0.939-0.148,1.87-0.447,2.794-0.896s1.612-1.156,2.06-2.121
	c0.449-0.965,0.672-2.196,0.672-3.691c0-1.822-0.557-3.222-1.672-4.201c-1.115-0.979-2.433-1.469-3.957-1.469h-5.139V57.017z
	 M29.967,67.703V81.57c0.19,0,0.49,0,0.897,0c0.544,0.027,1.081,0.034,1.611,0.021c0.53-0.015,1.046-0.033,1.55-0.061
	c0.503-0.027,0.984-0.074,1.448-0.144c0.462-0.067,0.903-0.149,1.325-0.245c0.422-0.094,0.822-0.231,1.203-0.407
	c0.38-0.177,0.728-0.381,1.041-0.61c0.312-0.232,0.591-0.524,0.835-0.879c0.245-0.353,0.456-0.739,0.633-1.161
	c0.176-0.423,0.312-0.918,0.408-1.489c0.095-0.57,0.143-1.196,0.143-1.876c0-1.225-0.185-2.285-0.551-3.183
	c-0.367-0.896-0.816-1.591-1.346-2.08c-0.531-0.487-1.183-0.877-1.958-1.162c-0.774-0.284-1.475-0.462-2.101-0.529
	c-0.625-0.068-1.332-0.103-2.121-0.103C32.686,67.662,31.68,67.676,29.967,67.703z"/>
<path fill="#D78629" d="M66.148,62.312c0-10.326,3.196-18.309,9.59-23.948c6.395-5.64,15.132-8.459,26.213-8.459
	c11.16,0,19.937,2.819,26.332,8.459c6.393,5.64,9.592,13.622,9.592,23.948c0,6.951-1.52,12.988-4.557,18.111
	c-3.04,5.123-7.249,8.994-12.631,11.616c-5.382,2.621-11.608,3.932-18.676,3.932c-7.07,0-13.295-1.311-18.676-3.932
	c-5.383-2.622-9.592-6.493-12.63-11.616C67.667,75.3,66.148,69.263,66.148,62.312z"/>
<path fill="#D78629" d="M183.931,49.562l-0.478-1.25c-0.358-0.835-0.755-1.727-1.19-2.68c-0.438-0.954-0.736-1.53-0.895-1.728
	c-0.754-1.113-1.828-2.026-3.215-2.741c-1.392-0.715-2.761-1.074-4.111-1.074c-1.47,0-2.75,0.389-3.842,1.162
	c-1.094,0.775-1.638,1.857-1.638,3.248c0,1.191,0.595,2.243,1.786,3.157c1.189,0.915,2.481,1.589,3.871,2.025
	c1.391,0.438,3.018,0.894,4.886,1.371c1.866,0.477,3.076,0.813,3.634,1.012c9.573,3.892,14.356,10.327,14.356,19.303
	c0,8.061-2.063,14.179-6.196,18.348c-4.129,4.17-10.225,6.256-18.289,6.256c-8.258,0-14.376-1.868-18.348-5.6l-2.144,3.989h-10.545
	l0.418-22.517h13.166c0.476,2.741,1.627,5.193,3.454,7.355c1.825,2.166,4.05,3.247,6.673,3.247c1.628,0,3.108-0.396,4.438-1.189
	c1.33-0.796,1.996-1.947,1.996-3.456c0-1.353-0.547-2.514-1.641-3.485c-1.092-0.975-2.502-1.777-4.229-2.413
	c-1.728-0.635-3.645-1.291-5.749-1.965c-2.106-0.675-4.199-1.499-6.285-2.474c-2.085-0.972-3.991-2.136-5.719-3.483
	c-1.728-1.353-3.138-3.178-4.231-5.481c-1.093-2.303-1.637-4.985-1.637-8.043c0-4.646,1.093-8.548,3.276-11.707
	c2.184-3.157,5.073-5.43,8.668-6.821c3.595-1.389,7.794-2.084,12.599-2.084c3.654,0,6.991,0.327,10.009,0.984
	c3.019,0.654,4.924,1.17,5.718,1.548c0.798,0.377,1.393,0.705,1.788,0.983l1.608-2.86h10.009v19.063H183.931z"/>
<path fill="#D78629" d="M244.106,49.562l-0.477-1.25c-0.357-0.835-0.756-1.727-1.19-2.68c-0.438-0.954-0.734-1.53-0.895-1.728
	c-0.755-1.113-1.828-2.026-3.219-2.741c-1.388-0.715-2.759-1.074-4.109-1.074c-1.467,0-2.749,0.389-3.842,1.162
	c-1.092,0.775-1.637,1.857-1.637,3.248c0,1.191,0.594,2.243,1.786,3.157c1.191,0.915,2.48,1.589,3.872,2.025
	c1.392,0.438,3.018,0.894,4.885,1.371c1.868,0.477,3.078,0.813,3.634,1.012c9.57,3.892,14.357,10.327,14.357,19.303
	c0,8.061-2.066,14.179-6.196,18.348c-4.13,4.17-10.226,6.256-18.289,6.256c-8.261,0-14.376-1.868-18.349-5.6l-2.145,3.989H201.75
	l0.417-22.517h13.166c0.476,2.741,1.628,5.193,3.456,7.355c1.825,2.166,4.051,3.247,6.671,3.247c1.628,0,3.106-0.396,4.439-1.189
	c1.33-0.796,1.995-1.947,1.995-3.456c0-1.353-0.546-2.514-1.64-3.485c-1.094-0.975-2.502-1.777-4.228-2.413
	c-1.731-0.635-3.645-1.291-5.749-1.965c-2.106-0.675-4.2-1.499-6.287-2.474c-2.085-0.972-3.99-2.136-5.719-3.483
	c-1.728-1.353-3.138-3.178-4.229-5.481c-1.091-2.303-1.64-4.985-1.64-8.043c0-4.646,1.094-8.548,3.279-11.707
	c2.183-3.157,5.071-5.43,8.666-6.821c3.595-1.389,7.795-2.084,12.601-2.084c3.653,0,6.99,0.327,10.009,0.984
	c3.017,0.654,4.922,1.17,5.717,1.548c0.796,0.377,1.393,0.705,1.789,0.983l1.607-2.86h10.009v19.063H244.106z"/>
<path fill="#D78629" d="M50.947,23.915l-0.458,0.378c-0.306,0.253-0.764,0.558-1.374,0.917c-0.612,0.357-1.301,0.713-2.07,1.066
	c-0.769,0.353-1.697,0.655-2.787,0.908c-1.091,0.253-2.183,0.379-3.279,0.379c-2.611,0-4.835-0.553-6.673-1.659
	c-1.837-1.105-3.207-2.634-4.107-4.588c-0.9-1.953-1.35-4.257-1.35-6.91c0-1.336,0.126-2.633,0.379-3.886
	c0.253-1.253,0.661-2.461,1.224-3.625c0.562-1.164,1.255-2.177,2.077-3.041c0.822-0.863,1.843-1.552,3.064-2.069
	c1.222-0.516,2.574-0.774,4.059-0.774c0.78,0,1.449,0.027,2.006,0.08c0.558,0.052,1.192,0.202,1.903,0.449
	c0.71,0.248,1.303,0.599,1.777,1.051l0.537-1.121h4.912l0.016,9.981h-4.707c0.01-0.558-0.048-1.103-0.173-1.635
	c-0.127-0.531-0.327-1.034-0.601-1.508c-0.274-0.474-0.663-0.855-1.168-1.146c-0.507-0.29-1.09-0.434-1.754-0.434
	c-0.495,0-0.939,0.082-1.334,0.245c-0.395,0.164-0.721,0.372-0.979,0.624s-0.481,0.58-0.671,0.979
	c-0.189,0.399-0.332,0.781-0.426,1.145c-0.095,0.363-0.168,0.804-0.221,1.318c-0.053,0.516-0.085,0.948-0.095,1.296
	c-0.01,0.347-0.015,0.768-0.015,1.263c0,0.147,0,0.378,0,0.695c-0.032,0.474-0.032,0.987,0,1.539
	c0.031,0.553,0.068,1.104,0.11,1.651c0.042,0.547,0.155,1.073,0.339,1.579c0.184,0.505,0.411,0.953,0.68,1.343
	s0.645,0.701,1.129,0.932c0.484,0.231,1.047,0.348,1.689,0.348c0.854,0,1.604-0.25,2.251-0.75c0.648-0.5,1.051-1.171,1.208-2.014
	c0.042-0.21,0.084-0.705,0.126-1.484h4.754V23.915z"/>
<path fill="#D78629" d="M53.379,22.288h1.248V6.067h-1.326V1.202h9.05v11.436c0.284-0.316,0.466-0.516,0.545-0.6
	c0.08-0.084,0.255-0.26,0.529-0.529c0.273-0.269,0.479-0.451,0.617-0.545c0.136-0.095,0.349-0.232,0.639-0.411
	c0.29-0.179,0.553-0.303,0.79-0.371c0.238-0.068,0.527-0.134,0.869-0.198c0.342-0.063,0.698-0.095,1.066-0.095
	c1.791,0,3.18,0.524,4.17,1.571c0.99,1.048,1.485,2.567,1.485,4.557v6.271h1.358v4.817H65.32v-9.777
	c-0.01-1.315-0.447-1.974-1.311-1.974c-1.064,0-1.595,0.622-1.595,1.864v5.07h1.263v4.817H53.365L53.379,22.288z"/>
<polygon fill="#D78629" points="85.601,22.288 86.928,22.288 86.928,27.105 76.708,27.105 76.708,22.288 78.003,22.288 
	78.003,15.085 76.598,15.085 76.598,10.173 85.601,10.173 "/>
<path fill="#D78629" d="M89.1,15.196c0.384-1.042,0.921-1.958,1.611-2.748c0.689-0.79,1.556-1.419,2.598-1.888
	c1.042-0.468,2.18-0.703,3.412-0.703c1.442,0,2.801,0.511,4.075,1.533l0.648-1.216h2.764v7.012h-3.822
	c0-0.695-0.189-1.263-0.569-1.706c-0.378-0.442-0.836-0.663-1.374-0.663c-0.663,0-1.238,0.342-1.722,1.026
	c-0.485,0.685-0.727,1.737-0.727,3.159c0,0.421,0.04,0.822,0.118,1.2c0.079,0.379,0.208,0.743,0.387,1.09
	c0.179,0.347,0.434,0.626,0.766,0.836c0.332,0.211,0.724,0.316,1.177,0.316c0.336,0,0.634-0.074,0.892-0.221
	c0.258-0.148,0.453-0.311,0.585-0.49c0.131-0.179,0.242-0.387,0.331-0.624s0.142-0.403,0.158-0.498
	c0.016-0.096,0.029-0.169,0.04-0.222h3.791v4.755c-0.726,0.726-1.742,1.282-3.048,1.666c-1.307,0.383-2.622,0.576-3.949,0.576
	c-1.664,0-3.146-0.334-4.446-1.003c-1.301-0.669-2.338-1.684-3.112-3.048c-0.773-1.364-1.161-2.982-1.161-4.856
	C88.522,17.333,88.715,16.238,89.1,15.196z"/>
<path fill="#D78629" d="M106.442,20.029c0.395-0.664,0.918-1.201,1.571-1.611c0.653-0.41,1.382-0.724,2.188-0.94
	c0.805-0.215,1.645-0.323,2.52-0.323c1.537,0,2.884,0.2,4.043,0.6v-0.711c0-1.748-1.112-2.622-3.333-2.622
	c-1.506,0-2.638,0.501-3.396,1.501h-2.764v-4.959l1.059-0.285c0.705-0.18,1.694-0.361,2.969-0.545
	c1.273-0.184,2.475-0.277,3.601-0.277c0.432,0,0.822,0.006,1.169,0.017s0.85,0.052,1.508,0.126c0.658,0.073,1.243,0.177,1.753,0.308
	s1.063,0.331,1.658,0.6c0.595,0.269,1.089,0.587,1.484,0.956c0.395,0.369,0.727,0.845,0.996,1.429
	c0.269,0.585,0.403,1.24,0.403,1.967v7.028h1.2v4.817h-7.455l-0.79-1.879c-0.526,0.685-1.248,1.216-2.165,1.595
	c-0.916,0.378-1.806,0.568-2.669,0.568c-1.706,0-3.157-0.466-4.351-1.398c-1.196-0.932-1.793-2.182-1.793-3.751
	C105.85,21.429,106.047,20.693,106.442,20.029z M113.999,23.117c0.274,0.3,0.643,0.449,1.106,0.449c0.337,0,0.652-0.067,0.948-0.205
	c0.294-0.137,0.484-0.245,0.568-0.325c0.084-0.078,0.147-0.145,0.189-0.197v-2.322l-0.221-0.078
	c-0.147-0.063-0.35-0.122-0.608-0.174c-0.258-0.052-0.502-0.078-0.734-0.078c-0.453,0-0.843,0.18-1.169,0.545
	c-0.327,0.362-0.489,0.771-0.489,1.224C113.589,22.43,113.726,22.817,113.999,23.117z"/>
<path fill="#D78629" d="M131.256,32.98c-1.059-0.179-1.732-0.321-2.022-0.426c-0.289-0.105-0.503-0.195-0.64-0.268v-4.881
	c1.96,0.716,3.875,1.074,5.748,1.074c0.728,0,1.33-0.04,1.81-0.118c0.479-0.079,0.917-0.231,1.312-0.458
	c0.395-0.227,0.681-0.556,0.86-0.987c0.179-0.432,0.269-0.984,0.269-1.658c-0.611,0.442-1.316,0.787-2.117,1.034
	c-0.801,0.248-1.604,0.371-2.416,0.371c-1.181,0-2.253-0.226-3.222-0.678c-0.97-0.454-1.765-1.061-2.386-1.825
	c-0.622-0.763-1.098-1.635-1.428-2.613c-0.332-0.98-0.498-2.012-0.498-3.096c0-1.454,0.324-2.83,0.971-4.13
	c0.647-1.3,1.568-2.364,2.765-3.191c1.194-0.826,2.522-1.24,3.987-1.24c1.601,0,3.311,0.49,5.133,1.469l0.523-1.184h7.153v4.912
	h-1.375v9.888c0,5.518-3.652,8.276-10.961,8.276C133.469,33.249,132.314,33.16,131.256,32.98z M134.342,20.432
	c0.127,0.521,0.37,0.977,0.728,1.366c0.357,0.391,0.816,0.584,1.373,0.584c0.369,0,0.699-0.116,0.988-0.348
	c0.289-0.231,0.513-0.529,0.672-0.892c0.157-0.363,0.276-0.739,0.355-1.129c0.079-0.39,0.118-0.779,0.118-1.168
	c0-0.601-0.071-1.171-0.214-1.714c-0.143-0.542-0.393-1.016-0.75-1.422c-0.356-0.405-0.789-0.608-1.296-0.608
	c-0.525,0-0.959,0.184-1.294,0.553c-0.337,0.369-0.566,0.808-0.688,1.319c-0.121,0.511-0.181,1.087-0.181,1.729
	C134.154,19.334,134.217,19.911,134.342,20.432z"/>
<path fill="#D78629" d="M148.669,18.465c0-2.738,0.847-4.854,2.542-6.349c1.694-1.495,4.013-2.243,6.949-2.243
	c2.959,0,5.287,0.748,6.982,2.243c1.693,1.495,2.543,3.611,2.543,6.349c0,1.843-0.401,3.443-1.208,4.802
	c-0.806,1.358-1.923,2.385-3.35,3.08c-1.426,0.694-3.077,1.042-4.951,1.042s-3.524-0.348-4.951-1.042
	c-1.428-0.695-2.543-1.722-3.349-3.08C149.072,21.909,148.669,20.308,148.669,18.465z"/>
<g>
	<path fill="#D78629" d="M12.25,27.599l8.09-26.74h5.998l-8.271,26.74H12.25z"/>
</g>
<circle fill="#D78629" cx="5.837" cy="24.002" r="3.597"/>
<circle fill="#D78629" cx="82.408" cy="5.439" r="3.597"/>
</svg>
